{
  "source": "C:\\Users\\Peter\\Desktop\\stuff\\MIUN\\quantitative_research\\video_compression\\videos\\BVI-HD\\RockWater_1920x1080_30fps.mp4",
  "output": "C:\\Users\\Peter\\Desktop\\stuff\\MIUN\\quantitative_research\\video_compression\\compressed_videos\\BVI-HD\\hevc\\2\\RockWater_1920x1080_30fps_hevc.mp4",
  "codec": "hevc",
  "ok": "Input #0, mov,mp4,m4a,3gp,3g2,mj2, from 'C:\\Users\\Peter\\Desktop\\stuff\\MIUN\\quantitative_research\\video_compression\\videos\\BVI-HD\\RockWater_1920x1080_30fps.mp4':\n  Metadata:\n    major_brand     : isom\n    minor_version   : 512\n    compatible_brands: isomiso2avc1mp41\n    encoder         : Lavf54.28.101\n  Duration: 00:00:05.00, start: 0.000000, bitrate: 245943 kb/s\n  Stream #0:0[0x1](und): Video: h264 (High 4:4:4 Predictive) (avc1 / 0x31637661), yuv420p(progressive), 1920x1080, 245940 kb/s, 30 fps, 30 tbr, 30 tbn (default)\n    Metadata:\n      handler_name    : VideoHandler\n      vendor_id       : [0][0][0][0]\n[out#0/mp4 @ 000002366bc31440] Codec AVOption b:a (set bitrate (in bits/s)) has not been used for any stream. The most likely reason is either wrong type (e.g. a video option with no video streams) or that it is a private option of some decoder which was not actually used for any stream.\nStream mapping:\n  Stream #0:0 -> #0:0 (h264 (native) -> hevc (libx265))\nPress [q] to stop, [?] for help\n[libx265 @ 000002366c4e47c0] Unknown option: \"aq-mode.\nx265 [info]: HEVC encoder version 4.1+190-8f11c33ac\nx265 [info]: build info [Windows][GCC 15.1.0][64 bit] 10bit\nx265 [info]: using cpu capabilities: MMX2 SSE2Fast LZCNT SSSE3 SSE4.2 AVX FMA3 BMI2 AVX2\nx265 [info]: Main 10 profile, Level-4 (Main tier)\nx265 [info]: Thread pool created using 12 threads\nx265 [info]: Slices                              : 1\nx265 [info]: frame threads / pool features       : 3 / wpp(17 rows)\nx265 [info]: Coding QT: max CU size, min CU size : 64 / 8\nx265 [info]: Residual QT: max TU size, max depth : 32 / 1 inter / 1 intra\nx265 [info]: ME / range / subpel / merge         : star / 57 / 3 / 3\nx265 [info]: Keyframe min / max / scenecut / bias  : 25 / 250 / 40 / 5.00 \nx265 [info]: Lookahead / bframes / badapt        : 25 / 4 / 2\nx265 [info]: b-pyramid / weightp / weightb       : 1 / 1 / 0\nx265 [info]: References / ref-limit  cu / depth  : 4 / on / on\nx265 [info]: AQ: mode / str / qg-size / cu-tree  : 2 / 1.0 / 32 / 1\nx265 [info]: Rate Control / qCompress            : ABR-2000 kbps / 0.60\nx265 [info]: VBV/HRD buffer / max-rate / init    : 2000 / 2000 / 0.750\nx265 [info]: tools: rect limit-modes rd=4 psy-rd=2.00 rdoq=2 psy-rdoq=1.00\nx265 [info]: tools: rskip mode=1 signhide tmvp strong-intra-smoothing lslices=4\nx265 [info]: tools: deblock sao dhdr10-info\nOutput #0, mp4, to 'C:\\Users\\Peter\\Desktop\\stuff\\MIUN\\quantitative_research\\video_compression\\compressed_videos\\BVI-HD\\hevc\\2\\RockWater_1920x1080_30fps_hevc.mp4':\n  Metadata:\n    major_brand     : isom\n    minor_version   : 512\n    compatible_brands: isomiso2avc1mp41\n    encoder         : Lavf62.3.100\n  Stream #0:0(und): Video: hevc (hev1 / 0x31766568), yuv420p10le(tv, progressive), 1920x1080, q=2-31, 2000 kb/s, 30 fps, 15360 tbn (default)\n    Metadata:\n      encoder         : Lavc62.11.100 libx265\n      handler_name    : VideoHandler\n      vendor_id       : [0][0][0][0]\n    Side data:\n      cpb: bitrate max/min/avg: 2000000/0/2000000 buffer size: 2000000 vbv_delay: N/A\nframe=    0 fps=0.0 q=0.0 size=       0KiB time=N/A bitrate=N/A speed=N/A elapsed=0:00:00.50    \nframe=    0 fps=0.0 q=0.0 size=       0KiB time=N/A bitrate=N/A speed=N/A elapsed=0:00:01.02    \nframe=    0 fps=0.0 q=0.0 size=       0KiB time=N/A bitrate=N/A speed=N/A elapsed=0:00:01.53    \nframe=    2 fps=1.0 q=44.1 size=       0KiB time=00:00:00.00 bitrate=N/A speed=   0x elapsed=0:00:02.05    \nframe=    4 fps=1.6 q=47.5 size=       0KiB time=00:00:00.06 bitrate=   5.3kbits/s speed=0.026x elapsed=0:00:02.56    \nframe=    6 fps=1.9 q=44.3 size=       0KiB time=00:00:00.13 bitrate=   2.6kbits/s speed=0.0432x elapsed=0:00:03.08    \nframe=    9 fps=2.5 q=41.4 size=       0KiB time=00:00:00.23 bitrate=   1.5kbits/s speed=0.0647x elapsed=0:00:03.60    \nframe=   10 fps=2.4 q=43.3 size=       0KiB time=00:00:00.26 bitrate=   1.3kbits/s speed=0.0648x elapsed=0:00:04.11    \nframe=   12 fps=2.6 q=41.0 size=       0KiB time=00:00:00.33 bitrate=   1.1kbits/s speed=0.072x elapsed=0:00:04.62    \nframe=   14 fps=2.7 q=44.2 size=       0KiB time=00:00:00.40 bitrate=   0.9kbits/s speed=0.0778x elapsed=0:00:05.14    \nframe=   16 fps=2.8 q=41.1 size=       0KiB time=00:00:00.46 bitrate=   0.8kbits/s speed=0.0823x elapsed=0:00:05.67    \nframe=   18 fps=2.9 q=40.9 size=       0KiB time=00:00:00.53 bitrate=   0.7kbits/s speed=0.0863x elapsed=0:00:06.18    \nframe=   21 fps=3.1 q=44.5 size=       0KiB time=00:00:00.63 bitrate=   0.6kbits/s speed=0.0946x elapsed=0:00:06.69    \nframe=   23 fps=3.2 q=44.8 size=       0KiB time=00:00:00.70 bitrate=   0.5kbits/s speed=0.0972x elapsed=0:00:07.20    \nframe=   25 fps=3.2 q=42.8 size=       0KiB time=00:00:00.76 bitrate=   0.5kbits/s speed=0.0992x elapsed=0:00:07.72    \nframe=   27 fps=3.3 q=44.5 size=       0KiB time=00:00:00.83 bitrate=   0.4kbits/s speed=0.101x elapsed=0:00:08.23    \nframe=   29 fps=3.3 q=42.5 size=       0KiB time=00:00:00.90 bitrate=   0.4kbits/s speed=0.103x elapsed=0:00:08.75    \nframe=   31 fps=3.3 q=40.4 size=       0KiB time=00:00:00.96 bitrate=   0.4kbits/s speed=0.104x elapsed=0:00:09.28    \nframe=   33 fps=3.4 q=44.5 size=     256KiB time=00:00:01.03 bitrate=2029.8kbits/s speed=0.105x elapsed=0:00:09.80    \nframe=   35 fps=3.4 q=44.3 size=     256KiB time=00:00:01.10 bitrate=1906.8kbits/s speed=0.107x elapsed=0:00:10.31    \nframe=   37 fps=3.4 q=42.3 size=     256KiB time=00:00:01.16 bitrate=1797.9kbits/s speed=0.108x elapsed=0:00:10.83    \nframe=   39 fps=3.4 q=44.1 size=     256KiB time=00:00:01.23 bitrate=1700.7kbits/s speed=0.109x elapsed=0:00:11.34    \nframe=   42 fps=3.5 q=40.6 size=     256KiB time=00:00:01.33 bitrate=1573.1kbits/s speed=0.112x elapsed=0:00:11.86    \nframe=   44 fps=3.6 q=44.5 size=     256KiB time=00:00:01.40 bitrate=1498.2kbits/s speed=0.113x elapsed=0:00:12.38    \nframe=   47 fps=3.6 q=40.0 size=     256KiB time=00:00:01.50 bitrate=1398.3kbits/s speed=0.116x elapsed=0:00:12.89    \nframe=   49 fps=3.7 q=44.6 size=     256KiB time=00:00:01.56 bitrate=1338.8kbits/s speed=0.117x elapsed=0:00:13.41    \nframe=   51 fps=3.7 q=40.2 size=     256KiB time=00:00:01.63 bitrate=1284.2kbits/s speed=0.117x elapsed=0:00:13.92    \nframe=   54 fps=3.7 q=44.6 size=     256KiB time=00:00:01.73 bitrate=1210.1kbits/s speed=0.12x elapsed=0:00:14.44    \nframe=   56 fps=3.7 q=43.4 size=     256KiB time=00:00:01.80 bitrate=1165.3kbits/s speed=0.12x elapsed=0:00:14.96    \nframe=   59 fps=3.8 q=39.8 size=     256KiB time=00:00:01.90 bitrate=1103.9kbits/s speed=0.123x elapsed=0:00:15.47    \nframe=   62 fps=3.9 q=39.9 size=     256KiB time=00:00:02.00 bitrate=1048.8kbits/s speed=0.125x elapsed=0:00:15.99    \nframe=   65 fps=3.9 q=44.5 size=     256KiB time=00:00:02.10 bitrate= 998.8kbits/s speed=0.127x elapsed=0:00:16.50    \nframe=   68 fps=4.0 q=44.6 size=     512KiB time=00:00:02.20 bitrate=1906.7kbits/s speed=0.129x elapsed=0:00:17.01    \nframe=   71 fps=4.0 q=39.8 size=     512KiB time=00:00:02.30 bitrate=1823.8kbits/s speed=0.131x elapsed=0:00:17.53    \nframe=   74 fps=4.1 q=44.2 size=     512KiB time=00:00:02.40 bitrate=1747.8kbits/s speed=0.133x elapsed=0:00:18.05    \nframe=   77 fps=4.1 q=43.7 size=     512KiB time=00:00:02.50 bitrate=1677.9kbits/s speed=0.135x elapsed=0:00:18.57    \nframe=   80 fps=4.2 q=43.8 size=     512KiB time=00:00:02.60 bitrate=1613.3kbits/s speed=0.136x elapsed=0:00:19.08    \nframe=   83 fps=4.2 q=44.2 size=     512KiB time=00:00:02.70 bitrate=1553.6kbits/s speed=0.138x elapsed=0:00:19.60    \nframe=   86 fps=4.3 q=39.4 size=     512KiB time=00:00:02.80 bitrate=1498.1kbits/s speed=0.139x elapsed=0:00:20.11    \nframe=   89 fps=4.3 q=39.5 size=     512KiB time=00:00:02.90 bitrate=1446.4kbits/s speed=0.141x elapsed=0:00:20.63    \nframe=   92 fps=4.4 q=43.8 size=     512KiB time=00:00:03.00 bitrate=1398.2kbits/s speed=0.142x elapsed=0:00:21.14    \nframe=   95 fps=4.4 q=42.2 size=     512KiB time=00:00:03.10 bitrate=1353.1kbits/s speed=0.143x elapsed=0:00:21.66    \nframe=   98 fps=4.4 q=44.3 size=     768KiB time=00:00:03.20 bitrate=1966.2kbits/s speed=0.144x elapsed=0:00:22.18    \nframe=  102 fps=4.5 q=44.2 size=     768KiB time=00:00:03.33 bitrate=1887.5kbits/s speed=0.147x elapsed=0:00:22.69    \nframe=  104 fps=4.5 q=39.4 size=     768KiB time=00:00:03.40 bitrate=1850.5kbits/s speed=0.147x elapsed=0:00:23.20    \nframe=  107 fps=4.5 q=42.4 size=     768KiB time=00:00:03.50 bitrate=1797.7kbits/s speed=0.148x elapsed=0:00:23.72    \nframe=  110 fps=4.5 q=40.0 size=     768KiB time=00:00:03.60 bitrate=1747.7kbits/s speed=0.148x elapsed=0:00:24.24    \nframe=  113 fps=4.6 q=40.2 size=     768KiB time=00:00:03.70 bitrate=1700.5kbits/s speed=0.149x elapsed=0:00:24.75    \nframe=  116 fps=4.6 q=45.1 size=     768KiB time=00:00:03.80 bitrate=1655.7kbits/s speed=0.15x elapsed=0:00:25.27    \nframe=  118 fps=4.6 q=43.8 size=     768KiB time=00:00:03.86 bitrate=1627.2kbits/s speed=0.15x elapsed=0:00:25.78    \nframe=  121 fps=4.6 q=45.1 size=     768KiB time=00:00:03.96 bitrate=1586.2kbits/s speed=0.151x elapsed=0:00:26.29    \nframe=  123 fps=4.6 q=43.9 size=     768KiB time=00:00:04.03 bitrate=1560.0kbits/s speed=0.15x elapsed=0:00:26.81    \nframe=  126 fps=4.6 q=45.3 size=     768KiB time=00:00:04.13 bitrate=1522.2kbits/s speed=0.151x elapsed=0:00:27.33    \nframe=  128 fps=4.6 q=43.6 size=     768KiB time=00:00:04.20 bitrate=1498.0kbits/s speed=0.151x elapsed=0:00:27.84    \nframe=  132 fps=4.7 q=43.5 size=    1024KiB time=00:00:04.33 bitrate=1935.9kbits/s speed=0.153x elapsed=0:00:28.36    \nframe=  134 fps=4.6 q=45.5 size=    1024KiB time=00:00:04.40 bitrate=1906.6kbits/s speed=0.152x elapsed=0:00:28.88    \nframe=  137 fps=4.7 q=45.2 size=    1024KiB time=00:00:04.50 bitrate=1864.2kbits/s speed=0.153x elapsed=0:00:29.40    \nframe=  140 fps=4.7 q=42.4 size=    1024KiB time=00:00:04.60 bitrate=1823.7kbits/s speed=0.154x elapsed=0:00:29.90    \nframe=  143 fps=4.7 q=44.9 size=    1024KiB time=00:00:04.70 bitrate=1784.9kbits/s speed=0.154x elapsed=0:00:30.42    \nframe=  145 fps=4.7 q=42.7 size=    1024KiB time=00:00:04.76 bitrate=1759.9kbits/s speed=0.154x elapsed=0:00:30.95    \n[mp4 @ 000002366bc31580] Starting second pass: moving the moov atom to the beginning of the file\n[out#0/mp4 @ 000002366bc31440] video:1189KiB audio:0KiB subtitle:0KiB other streams:0KiB global headers:2KiB muxing overhead: 0.431143%\nframe=  150 fps=4.8 q=43.7 Lsize=    1194KiB time=00:00:04.93 bitrate=1982.4kbits/s speed=0.157x elapsed=0:00:31.44    \nx265 [info]: frame I:      1, Avg QP:38.81  kb/s: 7392.48 \nx265 [info]: frame P:     39, Avg QP:40.61  kb/s: 3433.83 \nx265 [info]: frame B:    110, Avg QP:44.02  kb/s: 1369.81 \nx265 [info]: Weighted P-Frames: Y:15.4% UV:12.8%\n\nencoded 150 frames in 31.15s (4.82 fps), 1946.61 kb/s, Avg QP:43.10\n",
  "seconds": 31.70050072669983,
  "probe_out": {}
}